<svg xmlns="http://www.w3.org/2000/svg" version="1.1" xmlns:xlink="http://www.w3.org/1999/xlink" xmlns:svgjs="http://svgjs.dev/svgjs" width="1500" height="1230" viewBox="0 0 1500 1230"><g transform="matrix(1,0,0,1,0.9118553109199183,0.4805602353002314)"><svg viewBox="0 0 301 247" data-background-color="#ff5858" preserveAspectRatio="xMidYMid meet" height="1230" width="1500" xmlns="http://www.w3.org/2000/svg" xmlns:xlink="http://www.w3.org/1999/xlink"><g id="tight-bounds" transform="matrix(1,0,0,1,-0.18297896572460104,-0.09650274643834678)"><svg viewBox="0 0 301.3659579314492 247.2" height="247.2" width="301.3659579314492"><g><svg viewBox="0 0 395.52 324.43128172505806" height="247.2" width="301.3659579314492"><g transform="matrix(1,0,0,1,0,193.1854875499707)"><svg viewBox="0 0 395.52 131.24579417508733" height="131.24579417508733" width="395.52"><g id="textblocktransform"><svg viewBox="0 0 395.52 131.24579417508733" height="131.24579417508733" width="395.52" id="textblock"><g><rect width="395.52" height="99.1500542491269" fill="none" stroke-width="9.018103199999999" stroke="#ffffff" data-fill-palette-color="none" data-stroke-palette-color="tertiary"></rect><rect width="395.52" height="32.09573992596042" y="99.1500542491269" fill="#ffffff" data-fill-palette-color="tertiary"></rect></g><g><svg viewBox="0 0 395.52 99.1500542491269" height="99.1500542491269" width="395.52"><g transform="matrix(1,0,0,1,23.607599999999998,23.607599999999998)"><svg width="348.3048" viewBox="2.91 -36.94 251.63 37.529999999999994" height="51.93485424912689" data-palette-color="#ffffff"><path d="M27.93-10.67L27.93-10.67Q27.93-9.08 27.83-7.8 27.73-6.52 27.48-5.46 27.22-4.39 26.93-3.59 26.64-2.78 26.1-2.16 25.56-1.54 25.04-1.1 24.51-0.66 23.67-0.35 22.83-0.05 22.05 0.13 21.26 0.32 20.09 0.42 18.92 0.51 17.86 0.55 16.8 0.59 15.26 0.59L15.26 0.59Q12.35 0.59 10.39 0.42 8.42 0.24 7.04-0.32 5.66-0.88 4.91-1.48 4.15-2.08 3.71-3.38 3.27-4.69 3.14-5.88 3-7.08 2.91-9.28L2.91-9.28 7.42-10.01Q7.5-9.47 7.57-8.5L7.57-8.5Q7.71-6.98 7.85-6.36 7.98-5.74 8.37-4.98 8.76-4.22 9.59-3.99 10.42-3.76 11.77-3.59 13.11-3.42 15.36-3.42L15.36-3.42Q17.21-3.42 18.41-3.52 19.6-3.61 20.51-3.92 21.41-4.22 21.88-4.61 22.34-5 22.62-5.82 22.9-6.64 22.97-7.52 23.05-8.4 23.02-9.86L23.02-9.86Q23-13.09 22.67-14.32 22.34-15.55 21.26-15.77L21.26-15.77 9.11-17.9Q5.93-18.43 4.69-20.31 3.44-22.19 3.37-26.39L3.37-26.39Q3.37-28.64 3.6-30.24 3.83-31.84 4.41-33.04 4.98-34.25 5.82-34.99 6.67-35.72 8.04-36.17 9.42-36.62 11.07-36.78 12.72-36.94 15.11-36.94L15.11-36.94Q17.07-36.94 18.47-36.85 19.87-36.77 21.2-36.55 22.53-36.33 23.41-35.94 24.29-35.55 25.04-34.92 25.78-34.3 26.2-33.41 26.61-32.52 26.83-31.32 27.05-30.13 27.05-28.56L27.05-28.56 22.71-27.56Q22.46-30.25 22.39-30.62L22.39-30.62Q22.09-31.86 21-32.3L21-32.3Q19.78-32.81 15.89-32.81L15.89-32.81Q13.77-32.81 12.39-32.69 11.01-32.57 10.13-32.34 9.25-32.1 8.83-31.64 8.4-31.18 8.25-30.65 8.11-30.13 8.11-29.27L8.11-29.27 8.11-25.05Q8.11-22.75 10.11-22.41L10.11-22.41 18.85-20.92Q20.07-20.73 20.8-20.58 21.53-20.43 22.49-20.19 23.44-19.95 23.97-19.68 24.51-19.41 25.17-18.99 25.83-18.58 26.2-18.07 26.56-17.55 26.94-16.85 27.32-16.14 27.5-15.25 27.69-14.36 27.81-13.22 27.93-12.08 27.93-10.67ZM54.05-17.72L54.05 0 50.24 0 49.46-3.83Q48.73-1.32 46.81-0.48 44.89 0.37 41.21 0.37L41.21 0.37Q38.77 0.37 37.2-0.11 35.64-0.59 34.71-1.71 33.79-2.83 33.43-4.46 33.08-6.08 33.08-8.64L33.08-8.64Q33.08-9.79 33.48-10.69 33.88-11.6 34.58-12.23 35.28-12.87 36.44-13.33 37.6-13.79 38.84-14.06 40.09-14.33 41.86-14.49 43.63-14.65 45.31-14.7 46.99-14.75 49.24-14.75L49.24-14.75 49.24-22Q49.24-23.24 48.07-23.72 46.9-24.19 43.89-24.19L43.89-24.19Q41.79-24.19 40.74-24.1 39.69-24 39.15-23.52 38.6-23.05 38.51-22.58 38.43-22.12 38.4-20.85L38.4-20.85Q38.38-20.39 38.38-20.12L38.38-20.12 34.64-20.26Q34.59-20.65 34.59-21.41L34.59-21.41Q34.59-23.05 35.07-24.18 35.54-25.32 36.3-25.96 37.06-26.61 38.38-26.98 39.69-27.34 40.99-27.44 42.28-27.54 44.21-27.54L44.21-27.54Q47.14-27.54 48.97-27.09 50.8-26.64 51.98-25.46 53.15-24.29 53.6-22.47 54.05-20.65 54.05-17.72L54.05-17.72ZM49.24-7.67L49.24-7.67 49.24-11.84Q44.43-11.84 41.84-11.47 39.26-11.11 38.39-10.46 37.52-9.81 37.52-8.64L37.52-8.64Q37.52-8.59 37.52-8.5L37.52-8.5Q37.52-4.79 38.13-3.88 38.74-2.98 41.87-2.98L41.87-2.98Q44.53-2.98 46.19-3.61 47.85-4.25 48.5-5.24 49.14-6.23 49.24-7.67ZM82.64-14.87L82.64 0 77.83 0 77.83-16.21Q77.83-17.77 77.81-18.71 77.8-19.65 77.72-20.61 77.63-21.56 77.53-22.03 77.44-22.51 77.18-22.99 76.92-23.46 76.66-23.63 76.39-23.8 75.87-23.96 75.36-24.12 74.85-24.15 74.34-24.17 73.48-24.17L73.48-24.17Q71.63-24.17 70.32-23.96 69.01-23.75 68.18-23.39 67.35-23.02 66.9-22.36 66.45-21.7 66.28-20.94 66.11-20.17 66.11-19.04L66.11-19.04Q66.11-18.41 66.18-16.83 66.25-15.26 66.25-14.28L66.25-14.28 66.25 0 61.45 0 61.45-26.78 65.84-26.78 66.3-23.78Q66.94-25.78 69.11-26.66 71.28-27.54 74.29-27.54L74.29-27.54Q75.7-27.54 76.8-27.37 77.9-27.2 78.75-26.79 79.61-26.39 80.23-25.88 80.85-25.37 81.28-24.52 81.71-23.68 81.98-22.8 82.25-21.92 82.39-20.61 82.54-19.29 82.59-17.98 82.64-16.67 82.64-14.87L82.64-14.87ZM110.34-19.07L110.34-19.07 106.39-18.41 105.88-21.8Q105.68-22.97 105.41-23.29L105.41-23.29Q104.78-24.02 101.9-24.12L101.9-24.12Q101.21-24.15 100.38-24.15L100.38-24.15Q97.06-24.15 96.04-23.78L96.04-23.78Q94.91-23.58 94.4-21.56 93.89-19.53 93.89-16.6L93.89-16.6 93.91-12.38Q93.91-11.5 93.91-9.96L93.91-9.96Q93.91-7.96 93.91-7.14 93.91-6.32 94.13-5.29 94.35-4.25 94.63-3.99 94.91-3.74 95.7-3.39 96.48-3.05 97.37-3.03 98.26-3 99.94-3L99.94-3Q101.26-3 102.23-3.1 103.19-3.2 103.86-3.33 104.53-3.47 104.96-3.8 105.39-4.13 105.62-4.39 105.85-4.66 105.97-5.24 106.1-5.81 106.13-6.23 106.17-6.64 106.22-7.48 106.27-8.33 106.34-8.91L106.34-8.91 110.34-8.23Q110.2-6.32 110.01-5.18 109.83-4.03 109.4-2.95 108.98-1.88 108.33-1.33 107.68-0.78 106.55-0.34 105.41 0.1 103.91 0.23 102.41 0.37 100.16 0.37L100.16 0.37Q98.55 0.37 97.27 0.27 95.99 0.17 94.94-0.13 93.89-0.44 93.11-0.72 92.33-1 91.73-1.71 91.13-2.42 90.73-2.93 90.32-3.44 90.06-4.59 89.79-5.74 89.64-6.54 89.49-7.35 89.42-9 89.35-10.64 89.34-11.79 89.32-12.94 89.32-15.11L89.32-15.11Q89.32-17.07 89.4-18.49 89.47-19.92 89.69-21.23 89.91-22.53 90.26-23.4 90.62-24.27 91.22-25.02 91.81-25.78 92.58-26.22 93.35-26.66 94.49-26.98 95.62-27.29 96.98-27.42 98.33-27.54 100.14-27.54L100.14-27.54Q102.46-27.54 104.03-27.31 105.61-27.08 106.83-26.54 108.05-26 108.76-25.01 109.47-24.02 109.86-22.6 110.25-21.17 110.34-19.07ZM127.31-3.39L127.31-3.39 127.21 0.02Q125.16 0.37 123.5 0.37L123.5 0.37Q121.72 0.37 120.56-0.02 119.4-0.42 118.81-1.27 118.23-2.12 118.01-3.16 117.79-4.2 117.79-5.81L117.79-5.81 117.79-24.05 114.15-24.05 114.15-26.78 117.79-26.78 117.79-34.4 122.57-34.79 122.57-26.78 127.5-26.78 127.5-24.05 122.57-24.05 122.57-7.45Q122.57-4.81 122.83-4.03 123.09-3.25 124.23-3.25L124.23-3.25Q125.36-3.25 127.31-3.39ZM154.72-26.78L154.72 0.02 150.28 0.02 149.84-3.42Q149.21-1.49 147.07-0.56 144.93 0.37 141.86 0.37L141.86 0.37Q139.76 0.37 138.32-0.05 136.88-0.46 135.91-1.26 134.95-2.05 134.42-3.48 133.9-4.91 133.69-6.68 133.48-8.45 133.48-11.08L133.48-11.08 133.48-26.78 138.29-26.78 138.29-11.23Q138.29-10.69 138.28-9.78 138.27-8.86 138.27-8.5L138.27-8.5Q138.27-7.2 138.32-6.47 138.37-5.74 138.57-5.03 138.78-4.32 139.12-3.99 139.47-3.66 140.15-3.39 140.83-3.13 141.72-3.05 142.61-2.98 144.01-2.98L144.01-2.98Q145.57-2.98 146.67-3.2 147.77-3.42 148.4-3.77 149.04-4.13 149.36-4.74 149.69-5.35 149.79-5.93 149.89-6.52 149.89-7.4L149.89-7.4Q149.89-7.69 149.88-8.35 149.87-9.01 149.87-9.35L149.87-9.35 149.87-26.78 154.72-26.78ZM181.58-7.42L181.58-7.42Q181.58-5.08 181.06-3.58 180.55-2.08 179.37-1.2 178.18-0.32 176.49 0.02 174.79 0.37 172.2 0.37L172.2 0.37Q170.69 0.37 169.77 0.34 168.86 0.32 167.66 0.22 166.46 0.12 165.76-0.09 165.05-0.29 164.23-0.65 163.41-1 162.95-1.55 162.49-2.1 162.07-2.86 161.65-3.61 161.48-4.65 161.31-5.69 161.31-7.01L161.31-7.01 165.1-7.98Q165.32-5.2 165.61-4.47L165.61-4.47Q166.05-3.47 167.44-3.2L167.44-3.2Q168.49-2.98 171.86-2.98L171.86-2.98Q173.89-2.98 174.88-3.16 175.86-3.34 176.21-3.86L176.21-3.86Q177.18-4.66 177.18-9.35L177.18-9.35Q177.18-10.06 176.89-10.56 176.6-11.06 176.18-11.32 175.77-11.57 175.02-11.76 174.28-11.94 173.68-12 173.08-12.06 172.1-12.16 171.13-12.26 170.54-12.33L170.54-12.33Q168.76-12.52 167.64-12.71 166.51-12.89 165.37-13.26 164.22-13.62 163.57-14.16 162.92-14.7 162.39-15.55 161.85-16.41 161.63-17.6 161.41-18.8 161.41-20.46L161.41-20.46Q161.41-22.22 161.78-23.44 162.14-24.66 162.85-25.46 163.56-26.27 164.79-26.72 166.03-27.17 167.56-27.36 169.1-27.54 171.32-27.54L171.32-27.54Q172.71-27.54 173.61-27.5 174.5-27.47 175.56-27.33 176.62-27.2 177.28-26.95 177.94-26.71 178.61-26.27 179.28-25.83 179.65-25.18 180.01-24.54 180.25-23.61 180.48-22.68 180.48-21.48L180.48-21.48 177.21-20.48Q177.11-21.44 177.02-21.98 176.94-22.53 176.65-23 176.35-23.46 176.03-23.66 175.72-23.85 174.95-24 174.18-24.15 173.4-24.17 172.62-24.19 171.15-24.19L171.15-24.19Q168.03-24.19 166.92-23.57 165.81-22.95 165.81-21.53L165.81-21.53 165.81-19.04Q165.81-17.43 166.77-17 167.73-16.58 171.93-16.04L171.93-16.04Q172.37-15.97 172.59-15.94L172.59-15.94Q174.28-15.75 175.27-15.58 176.25-15.41 177.35-15.12 178.45-14.84 179.03-14.47 179.6-14.09 180.17-13.5 180.75-12.92 181-12.06 181.26-11.21 181.42-10.08 181.58-8.96 181.58-7.42ZM222.86-26.37L222.86-26.37Q222.86-21.7 221.1-19.45 219.34-17.19 216.19-16.67L216.19-16.67Q220.88-15.72 221.76-10.72L221.76-10.72 223.64 0 218.34 0Q218.14-1.12 217.89-3.26 217.63-5.4 217.41-6.87 217.19-8.35 216.83-10.01 216.46-11.67 215.86-12.79 215.26-13.92 214.43-14.45L214.43-14.45Q213.11-15.01 210.11-15.01L210.11-15.01 202.57-15.01 202.57 0 197.64 0 197.64-36.38 208.74-36.38Q210.5-36.38 211.74-36.34 212.97-36.3 214.34-36.18 215.7-36.06 216.63-35.84 217.56-35.62 218.52-35.25 219.49-34.89 220.11-34.35 220.73-33.81 221.29-33.07 221.86-32.32 222.17-31.36 222.49-30.4 222.67-29.15 222.86-27.91 222.86-26.37ZM217.97-24.44L217.97-24.44 217.97-27.83Q217.97-28.76 217.94-29.28 217.9-29.81 217.75-30.41 217.61-31.01 217.3-31.31 217-31.62 216.5-31.92 216-32.23 215.2-32.35 214.41-32.47 213.35-32.56 212.28-32.64 210.8-32.64L210.8-32.64 202.57-32.64 202.57-18.9 211.09-18.9Q212.97-18.9 214.19-19.09 215.41-19.29 216.18-19.64 216.95-20 217.34-20.72 217.73-21.44 217.85-22.25 217.97-23.07 217.97-24.44ZM254.54-24.51L254.54-24.51Q254.54-22.29 254.3-20.56 254.05-18.82 253.65-17.59 253.25-16.36 252.55-15.48 251.86-14.6 251.09-14.06 250.32-13.53 249.23-13.22 248.15-12.92 247.08-12.82 246.02-12.72 244.61-12.72L244.61-12.72 234.91-12.72 234.91 0 229.98 0 229.98-36.38 243.17-36.38Q245.44-36.38 247.01-36.19 248.59-36.01 249.93-35.52 251.27-35.03 252.08-34.2 252.88-33.37 253.47-32.03 254.05-30.69 254.29-28.87 254.52-27.05 254.54-24.51ZM249.61-24.78L249.61-24.78Q249.59-26.54 249.51-27.64 249.44-28.74 249.23-29.71 249.03-30.69 248.7-31.2 248.37-31.71 247.79-32.09 247.22-32.47 246.45-32.59 245.68-32.71 244.53-32.71L244.53-32.71 234.91-32.71 234.91-16.41 243.53-16.41Q245.44-16.41 246.63-16.72 247.83-17.04 248.5-17.79 249.17-18.53 249.4-19.53 249.64-20.53 249.64-22.12L249.64-22.12Q249.64-22.51 249.62-23.39 249.61-24.27 249.61-24.78Z" opacity="1" transform="matrix(1,0,0,1,0,0)" fill="#ffffff" class="wordmark-text-0" data-fill-palette-color="primary" id="text-0"></path></svg></g></svg></g></svg></g></svg></g><g transform="matrix(1,0,0,1,107.06915622501464,0)"><svg viewBox="0 0 181.3816875499707 181.3816875499707" height="181.3816875499707" width="181.3816875499707"><g><svg xmlns="http://www.w3.org/2000/svg" xmlns:xlink="http://www.w3.org/1999/xlink" version="1.1" x="0" y="0" viewBox="2 2 60 60" style="enable-background:new 0 0 64 64;" xml:space="preserve" height="181.3816875499707" width="181.3816875499707" class="icon-icon-0" data-fill-palette-color="accent" id="icon-0"><path d="M45.267 44.054L45.324 43.828A6.3 6.3 0 0 0 44.646 39.133C44.868 38.81 45 38.421 45 38 45 36.897 44.103 36 43 36S41 36.897 41 38C41 39.046 41.809 39.897 42.833 39.983 43.465 40.972 43.671 42.194 43.384 43.343L43.22 44H39V36.379A4.39 4.39 0 0 0 36.395 32.375C36.986 31.301 37.159 30.038 36.852 28.774A4.96 4.96 0 0 0 33.156 25.13 5.03 5.03 0 0 0 28.882 26.091 4.98 4.98 0 0 0 27 30C27 30.835 27.215 31.649 27.611 32.373A4.38 4.38 0 0 0 25 36.379V44H20.78L20.616 43.342A4.32 4.32 0 0 1 21.167 39.983 1.995 1.995 0 0 0 23 38C23 36.897 22.103 36 21 36S19 36.897 19 38C19 38.421 19.132 38.81 19.355 39.133A6.3 6.3 0 0 0 18.677 43.827L18.734 44.054A0.986 0.986 0 0 0 18 45V62H20V46H44V62H46V45A0.986 0.986 0 0 0 45.267 44.054M30.13 27.654C30.859 27.071 31.778 26.869 32.714 27.081A2.985 2.985 0 0 1 33.972 32.236L32 33.742 30.03 32.238A2.95 2.95 0 0 1 29 30 2.99 2.99 0 0 1 30.13 27.654M32.846 38.072L32 39.764 31.154 38.072 32 36.803zM37 44H27V36.379C27 35.169 27.911 34.178 29.082 34.03L30.648 35.225 29.168 37.445A1 1 0 0 0 29.106 38.447L31.106 42.447A0.998 0.998 0 0 0 32.895 42.447L34.895 38.447C35.055 38.126 35.032 37.743 34.833 37.445L33.353 35.225 34.919 34.03A2.375 2.375 0 0 1 37 36.379z" fill="#ffffff" data-fill-palette-color="accent"></path><path d="M37.948 52.502A1 1 0 0 0 37.151 51.831L34.223 51.384 32.905 48.575A1 1 0 0 0 31.095 48.575L29.777 51.384 26.849 51.831A1.002 1.002 0 0 0 26.284 53.518L28.431 55.719 27.922 58.839A1.003 1.003 0 0 0 29.393 59.876L32 58.435 34.606 59.875A1.01 1.01 0 0 0 35.666 59.817C35.978 59.597 36.139 59.216 36.077 58.838L35.568 55.718 37.715 53.517A1 1 0 0 0 37.948 52.502M33.784 54.684A1 1 0 0 0 33.513 55.543L33.772 57.129 32.484 56.417A1 1 0 0 0 31.518 56.417L30.23 57.129 30.489 55.543A1 1 0 0 0 30.218 54.684L29.077 53.515 30.608 53.281C30.937 53.23 31.22 53.019 31.362 52.717L32 51.354 32.64 52.717C32.782 53.019 33.065 53.23 33.394 53.281L34.925 53.515z" fill="#ffffff" data-fill-palette-color="accent"></path><path d="M4 57.379A2.38 2.38 0 0 1 6.38 55 1.001 1.001 0 0 0 7.039 53.248 2.96 2.96 0 0 1 6 51 2.99 2.99 0 0 1 7.13 48.654C7.859 48.071 8.778 47.869 9.714 48.081A2.985 2.985 0 0 1 10.962 53.247 1 1 0 0 0 11.62 55 2.38 2.38 0 0 1 14 57.379V62H16V57.379A4.39 4.39 0 0 0 13.395 53.375C13.986 52.301 14.159 51.038 13.852 49.774A4.96 4.96 0 0 0 10.156 46.13 5.02 5.02 0 0 0 5.882 47.091 4.98 4.98 0 0 0 4 51C4 51.835 4.215 52.649 4.611 53.373A4.38 4.38 0 0 0 2 57.379V62H4z" fill="#ffffff" data-fill-palette-color="accent"></path><path d="M59.395 53.375C59.986 52.301 60.159 51.038 59.852 49.774A4.96 4.96 0 0 0 56.156 46.13 5.03 5.03 0 0 0 51.882 47.091 4.98 4.98 0 0 0 50 51C50 51.835 50.215 52.649 50.611 53.373A4.38 4.38 0 0 0 48 57.379V62H50V57.379A2.38 2.38 0 0 1 52.38 55 1.001 1.001 0 0 0 53.039 53.248 2.96 2.96 0 0 1 52 51 2.99 2.99 0 0 1 53.13 48.654C53.859 48.071 54.777 47.869 55.714 48.081A2.985 2.985 0 0 1 56.962 53.247 1 1 0 0 0 57.62 55 2.38 2.38 0 0 1 60 57.379V62H62V57.379A4.39 4.39 0 0 0 59.395 53.375" fill="#ffffff" data-fill-palette-color="accent"></path><path d="M11.515 18.657C11.515 18.922 11.62 19.177 11.808 19.364L14.636 22.193A1 1 0 0 0 16.05 22.193L17.529 20.714 18 20.908V23A1 1 0 0 0 19 24H23A1 1 0 0 0 24 23V20.908L24.471 20.713 25.95 22.192A1 1 0 0 0 27.364 22.192L30.192 19.363A1 1 0 0 0 30.192 17.949L28.713 16.47 28.908 16H31A1 1 0 0 0 32 15V11A1 1 0 0 0 31 10H28.908L28.713 9.529 30.192 8.05A1 1 0 0 0 30.192 6.636L27.364 3.807A1 1 0 0 0 25.95 3.807L24.471 5.286 24 5.092V3A1 1 0 0 0 23 2H19A1 1 0 0 0 18 3V5.092L17.529 5.287 16.05 3.808A1 1 0 0 0 14.636 3.808L11.808 6.637A1 1 0 0 0 11.808 8.051L13.287 9.53 13.092 10H11A1 1 0 0 0 10 11V15A1 1 0 0 0 11 16H13.092L13.287 16.471 11.808 17.95A1 1 0 0 0 11.515 18.657M12 14V12H13.76C14.164 12 14.529 11.756 14.684 11.383L15.391 9.678A1 1 0 0 0 15.174 8.588L13.929 7.343 15.343 5.928 16.588 7.173A1 1 0 0 0 17.678 7.39L19.383 6.684A1 1 0 0 0 20 5.76V4H22V5.76A1 1 0 0 0 22.617 6.684L24.322 7.391A1 1 0 0 0 25.412 7.174L26.657 5.929 28.071 7.344 26.826 8.589A1 1 0 0 0 26.609 9.679L27.316 11.384C27.472 11.756 27.836 12 28.24 12H30V14H28.24C27.836 14 27.471 14.244 27.316 14.617L26.61 16.323A1 1 0 0 0 26.827 17.413L28.071 18.657 26.657 20.072 25.412 18.827A1 1 0 0 0 24.322 18.61L22.617 19.317A1 1 0 0 0 22 20.24V22H20V20.24A1 1 0 0 0 19.383 19.316L17.678 18.609A1 1 0 0 0 16.588 18.826L15.343 20.071 13.929 18.656 15.174 17.411A1 1 0 0 0 15.391 16.321L14.684 14.616A1 1 0 0 0 13.76 14z" fill="#ffffff" data-fill-palette-color="accent"></path><path d="M21 18C23.757 18 26 15.757 26 13S23.757 8 21 8 16 10.243 16 13 18.243 18 21 18M21 10C22.654 10 24 11.346 24 13S22.654 16 21 16 18 14.654 18 13 19.346 10 21 10" fill="#ffffff" data-fill-palette-color="accent"></path><path d="M36.303 8.283A1 1 0 0 0 36.004 9.083L36.59 16.113A17.3 17.3 0 0 0 40.334 25.518L45.219 31.624A1 1 0 0 0 46.781 31.625L51.666 25.519A17.3 17.3 0 0 0 55.41 16.114L55.996 9.084A1 1 0 0 0 54.889 8.007L47.887 8.785A17 17 0 0 1 44.112 8.785L37.11 8.006A1 1 0 0 0 36.303 8.283M43.892 10.771C45.29 10.927 46.71 10.927 48.109 10.771L53.903 10.127 53.419 15.946A15.3 15.3 0 0 1 50.105 24.268L46 29.399 41.896 24.269A15.3 15.3 0 0 1 38.582 15.947L38.098 10.128z" fill="#ffffff" data-fill-palette-color="accent"></path><path d="M45.447 15.895L44.552 14.106A3.49 3.49 0 0 1 41.447 14.106L40.552 15.895A5.49 5.49 0 0 0 45.447 15.895" fill="#ffffff" data-fill-palette-color="accent"></path><path d="M51.447 15.895L50.552 14.106A3.49 3.49 0 0 1 47.447 14.106L46.552 15.895A5.49 5.49 0 0 0 51.447 15.895" fill="#ffffff" data-fill-palette-color="accent"></path><path d="M42.293 21.707L45.293 24.707A0.997 0.997 0 0 0 46.707 24.707L49.707 21.707 48.293 20.293 46 22.586 43.707 20.293z" fill="#ffffff" data-fill-palette-color="accent"></path><rect x="58" y="2" width="2" height="2" fill="#ffffff" data-fill-palette-color="accent"></rect><rect x="58" y="6" width="2" height="2" fill="#ffffff" data-fill-palette-color="accent"></rect><rect x="60" y="4" width="2" height="2" fill="#ffffff" data-fill-palette-color="accent"></rect><rect x="56" y="4" width="2" height="2" fill="#ffffff" data-fill-palette-color="accent"></rect><rect x="4" y="29" width="2" height="2" fill="#ffffff" data-fill-palette-color="accent"></rect><rect x="4" y="33" width="2" height="2" fill="#ffffff" data-fill-palette-color="accent"></rect><rect x="6" y="31" width="2" height="2" fill="#ffffff" data-fill-palette-color="accent"></rect><rect x="2" y="31" width="2" height="2" fill="#ffffff" data-fill-palette-color="accent"></rect></svg></g></svg></g><g></g></svg></g><defs></defs></svg><rect width="301.3659579314492" height="247.2" fill="none" stroke="none" visibility="hidden"></rect></g></svg></g></svg>